<svg width="119" height="119" viewBox="0 0 119 119" fill="none" xmlns="http://www.w3.org/2000/svg">
<path fill-rule="evenodd" clip-rule="evenodd" d="M117.275 23.302C118.485 22.3826 118.485 20.5439 117.275 19.6245L93.07 1.23693C91.574 0.10052 89.4392 1.18166 89.4392 3.07569V15.7207H21.3628C9.87464 15.7207 0.561646 25.1537 0.561646 36.7898V59.7743C0.561646 62.9478 3.10155 65.5204 6.23469 65.5204C9.36782 65.5204 11.9077 62.9478 11.9077 59.7743V36.7898C11.9077 31.5007 16.1409 27.213 21.3628 27.213H89.4392V39.8508C89.4392 41.7448 91.574 42.826 93.07 41.6896L117.275 23.302Z" fill="#FCFDFD"/>
<path fill-rule="evenodd" clip-rule="evenodd" d="M112.131 54.0293C115.264 54.0293 117.804 56.6019 117.804 59.7754V82.7599C117.804 94.396 108.491 103.829 97.0026 103.829H21.3621C18.229 103.829 15.6891 101.256 15.6891 98.0828C15.6891 94.9093 18.229 92.3367 21.3621 92.3367H97.0026C102.225 92.3367 106.458 88.049 106.458 82.7599V59.7754C106.458 56.6019 108.998 54.0293 112.131 54.0293Z" fill="#FCFDFD"/>
<path d="M1.09043 99.9216C-0.119822 99.0022 -0.119823 97.1634 1.09043 96.2441L25.2954 77.8565C26.7914 76.7201 28.9261 77.8012 28.9261 79.6953V116.47C28.9261 118.364 26.7914 119.446 25.2954 118.309L1.09043 99.9216Z" fill="#FCFDFD"/>
</svg>
