<svg width="137" height="120" viewBox="0 0 137 120" fill="none" xmlns="http://www.w3.org/2000/svg">
<path fill-rule="evenodd" clip-rule="evenodd" d="M17.5489 19.5693C13.6691 23.9752 11.6025 30.4477 11.6025 38.506C11.6025 47.4659 15.8218 56.165 24.7348 66.4403C33.6903 76.7646 46.618 87.8332 62.7806 101.653L68.1964 106.302L73.58 101.716C73.5816 101.715 73.5784 101.717 73.58 101.716C89.7417 87.8671 102.673 76.781 111.629 66.4491C120.543 56.1653 124.763 47.466 124.763 38.506C124.763 30.541 122.588 24.0669 118.572 19.6274C114.62 15.2583 108.226 12.129 98.3096 12.129C88.1363 12.129 79.2015 20.1719 72.3481 27.7608L68.1826 32.3732L64.0172 27.7608C60.8039 24.2026 56.6721 20.2131 52.0003 17.1432C47.3098 14.0611 42.4167 12.129 37.571 12.129C27.5776 12.129 21.3442 15.2594 17.5489 19.5693ZM9.12049 11.5696C15.5663 4.24976 25.1722 0.273071 37.571 0.273071C45.3207 0.273071 52.3387 3.33442 58.1078 7.12533C61.8775 9.60243 65.2605 12.4868 68.1496 15.2912C75.174 8.29649 85.5351 0.273071 98.3096 0.273071C110.643 0.273071 120.33 4.25083 126.897 11.5115C133.401 18.7019 136.183 28.3803 136.183 38.506C136.183 51.7484 129.813 63.1957 120.118 74.38C110.576 85.388 97.0771 96.9545 81.3937 110.393L80.8494 110.86L73.1268 117.439C70.2471 119.892 66.097 119.884 63.226 117.419L55.5205 110.805L55.1323 110.473C39.381 97.0047 25.8239 85.4127 16.2488 74.3741C6.55264 63.196 0.182617 51.7485 0.182617 38.506C0.182617 28.4736 2.7591 18.7936 9.12049 11.5696Z" fill="white"/>
</svg>
