<svg width="129" height="129" viewBox="0 0 129 129" fill="none" xmlns="http://www.w3.org/2000/svg">
<path d="M32.8932 64.3185C32.8932 73.0483 25.8163 80.1252 17.0865 80.1252C8.35669 80.1252 1.27979 73.0483 1.27979 64.3185C1.27979 55.5887 8.35669 48.5118 17.0865 48.5118C25.8163 48.5118 32.8932 55.5887 32.8932 64.3185Z" fill="#FCFDFD"/>
<path d="M80.3133 64.3185C80.3133 73.0483 73.2364 80.1252 64.5066 80.1252C55.7768 80.1252 48.6999 73.0483 48.6999 64.3185C48.6999 55.5887 55.7768 48.5118 64.5066 48.5118C73.2364 48.5118 80.3133 55.5887 80.3133 64.3185Z" fill="#FCFDFD"/>
<path d="M127.733 64.3185C127.733 73.0483 120.656 80.1252 111.927 80.1252C103.197 80.1252 96.12 73.0483 96.12 64.3185C96.12 55.5887 103.197 48.5118 111.927 48.5118C120.656 48.5118 127.733 55.5887 127.733 64.3185Z" fill="#FCFDFD"/>
</svg>
